<?xml version="1.0" encoding="UTF-8" standalone="no"?>
<!-- Created with Inkscape (http://www.inkscape.org/) -->

<svg
   width="67.535927mm"
   height="64.23587mm"
   viewBox="0 0 78.536 74.698439"
   version="1.1"
   id="svg1"
   inkscape:version="1.4 (e7c3feb1, 2024-10-09)"
   sodipodi:docname="powerup.svg"
   xmlns:inkscape="http://www.inkscape.org/namespaces/inkscape"
   xmlns:sodipodi="http://sodipodi.sourceforge.net/DTD/sodipodi-0.dtd"
   xmlns="http://www.w3.org/2000/svg"
   xmlns:svg="http://www.w3.org/2000/svg">
  <sodipodi:namedview
     id="namedview1"
     pagecolor="#ffffff"
     bordercolor="#666666"
     borderopacity="1.0"
     inkscape:showpageshadow="2"
     inkscape:pageopacity="0.0"
     inkscape:pagecheckerboard="0"
     inkscape:deskcolor="#d1d1d1"
     inkscape:document-units="mm"
     inkscape:zoom="0.74118967"
     inkscape:cx="64.08616"
     inkscape:cy="140.31496"
     inkscape:window-width="1328"
     inkscape:window-height="697"
     inkscape:window-x="0"
     inkscape:window-y="38"
     inkscape:window-maximized="0"
     inkscape:current-layer="layer1" />
  <defs
     id="defs1" />
  <g
     inkscape:label="Layer 1"
     inkscape:groupmode="layer"
     id="layer1"
     transform="translate(-82.958761,-88.720166)">
    <path
       id="path1"
       style="stroke:#000000;stroke-width:0;paint-order:stroke fill markers"
       inkscape:transform-center-x="0.00274873"
       inkscape:transform-center-y="-3.3878726"
       d="m 121.70188,93.286417 -10.42933,21.145993 -23.332425,3.39618 16.888375,16.45377 -3.98012,23.23993 20.86694,-10.97711 20.87263,10.96626 -3.99149,-23.23734 16.87959,-16.46205 -23.33398,-3.38481 z m -7.92613,24.283793 a 4.2836537,4.2836537 0 0 1 1.78697,0.35295 4.2836537,4.2836537 0 0 1 2.22467,5.63479 4.2836537,4.2836537 0 0 1 -5.63428,2.22467 l 1.70429,-3.92947 -1.7048,3.92947 a 4.2836537,4.2836537 0 0 1 -2.22467,-5.63479 4.2836537,4.2836537 0 0 1 3.84782,-2.57762 z m 16.00213,0 a 4.2836537,4.2836537 0 0 1 1.78645,0.35295 4.2836537,4.2836537 0 0 1 2.22519,5.63479 4.2836537,4.2836537 0 0 1 -5.6348,2.22467 l 1.70481,-3.92947 -1.70533,3.92947 a 4.2836537,4.2836537 0 0 1 -2.22415,-5.63479 4.2836537,4.2836537 0 0 1 3.84783,-2.57762 z" />
  </g>
</svg>
